<mxfile host="Electron" modified="2023-04-28T00:57:50.778Z" agent="Mozilla/5.0 (Windows NT 10.0; Win64; x64) AppleWebKit/537.36 (KHTML, like Gecko) draw.io/21.2.1 Chrome/112.0.5615.87 Electron/24.1.2 Safari/537.36" etag="P4P7ygRBUBrVMivg7FiU" version="21.2.1" type="device">
  <diagram name="Page-1" id="bWD9T5PZyZ2lGrPmeZSB">
    <mxGraphModel dx="2216" dy="796" grid="1" gridSize="10" guides="1" tooltips="1" connect="1" arrows="1" fold="1" page="1" pageScale="1" pageWidth="850" pageHeight="1100" math="0" shadow="0">
      <root>
        <mxCell id="0" />
        <mxCell id="1" parent="0" />
        <mxCell id="7YN3MFbd8wUG7k_bTS1g-21" value="User account required to use app." style="shape=note;whiteSpace=wrap;html=1;backgroundOutline=1;darkOpacity=0.05;" parent="1" vertex="1">
          <mxGeometry x="200" y="300" width="160" height="100" as="geometry" />
        </mxCell>
        <mxCell id="7YN3MFbd8wUG7k_bTS1g-22" value="" style="endArrow=none;dashed=1;html=1;dashPattern=1 3;strokeWidth=2;rounded=0;" parent="1" source="1fNEbjh4FirybOxassPJ-1" target="7YN3MFbd8wUG7k_bTS1g-21" edge="1">
          <mxGeometry width="50" height="50" relative="1" as="geometry">
            <mxPoint x="280" y="440" as="sourcePoint" />
            <mxPoint x="290" y="380" as="targetPoint" />
          </mxGeometry>
        </mxCell>
        <mxCell id="7YN3MFbd8wUG7k_bTS1g-23" value="category for transactions" style="shape=note;whiteSpace=wrap;html=1;backgroundOutline=1;darkOpacity=0.05;" parent="1" vertex="1">
          <mxGeometry x="480" y="300" width="160" height="100" as="geometry" />
        </mxCell>
        <mxCell id="7YN3MFbd8wUG7k_bTS1g-25" value="transaction" style="shape=note;whiteSpace=wrap;html=1;backgroundOutline=1;darkOpacity=0.05;" parent="1" vertex="1">
          <mxGeometry x="760" y="300" width="160" height="100" as="geometry" />
        </mxCell>
        <mxCell id="7YN3MFbd8wUG7k_bTS1g-33" value="" style="endArrow=none;dashed=1;html=1;dashPattern=1 3;strokeWidth=2;rounded=0;" parent="1" target="7YN3MFbd8wUG7k_bTS1g-23" edge="1">
          <mxGeometry width="50" height="50" relative="1" as="geometry">
            <mxPoint x="560" y="440" as="sourcePoint" />
            <mxPoint x="559.5" y="360" as="targetPoint" />
          </mxGeometry>
        </mxCell>
        <mxCell id="7YN3MFbd8wUG7k_bTS1g-34" value="" style="endArrow=none;dashed=1;html=1;dashPattern=1 3;strokeWidth=2;rounded=0;" parent="1" target="7YN3MFbd8wUG7k_bTS1g-25" edge="1">
          <mxGeometry width="50" height="50" relative="1" as="geometry">
            <mxPoint x="840" y="438" as="sourcePoint" />
            <mxPoint x="570" y="370" as="targetPoint" />
          </mxGeometry>
        </mxCell>
        <mxCell id="7YN3MFbd8wUG7k_bTS1g-46" value="" style="endArrow=none;html=1;rounded=0;" parent="1" source="1fNEbjh4FirybOxassPJ-1" target="1fNEbjh4FirybOxassPJ-20" edge="1">
          <mxGeometry width="50" height="50" relative="1" as="geometry">
            <mxPoint x="360" y="492.5" as="sourcePoint" />
            <mxPoint x="480" y="479.66666666666674" as="targetPoint" />
            <Array as="points">
              <mxPoint x="440" y="480" />
            </Array>
          </mxGeometry>
        </mxCell>
        <mxCell id="7YN3MFbd8wUG7k_bTS1g-48" value="" style="endArrow=none;html=1;rounded=0;" parent="1" source="1fNEbjh4FirybOxassPJ-1" target="1fNEbjh4FirybOxassPJ-24" edge="1">
          <mxGeometry width="50" height="50" relative="1" as="geometry">
            <mxPoint x="360" y="541.6666666666667" as="sourcePoint" />
            <mxPoint x="760" y="540.9999999999998" as="targetPoint" />
            <Array as="points">
              <mxPoint x="400" y="560" />
              <mxPoint x="720" y="560" />
            </Array>
          </mxGeometry>
        </mxCell>
        <mxCell id="7YN3MFbd8wUG7k_bTS1g-51" value="" style="endArrow=none;html=1;rounded=0;" parent="1" source="1fNEbjh4FirybOxassPJ-1" target="1fNEbjh4FirybOxassPJ-24" edge="1">
          <mxGeometry width="50" height="50" relative="1" as="geometry">
            <mxPoint x="360" y="568.3333333333333" as="sourcePoint" />
            <mxPoint x="760" y="567.6666666666665" as="targetPoint" />
            <Array as="points">
              <mxPoint x="400" y="600" />
              <mxPoint x="720" y="600" />
            </Array>
          </mxGeometry>
        </mxCell>
        <mxCell id="7YN3MFbd8wUG7k_bTS1g-53" value="" style="endArrow=none;html=1;rounded=0;" parent="1" source="1fNEbjh4FirybOxassPJ-24" target="1fNEbjh4FirybOxassPJ-20" edge="1">
          <mxGeometry width="50" height="50" relative="1" as="geometry">
            <mxPoint x="760" y="515.3636363636363" as="sourcePoint" />
            <mxPoint x="640" y="498.2941176470588" as="targetPoint" />
            <Array as="points">
              <mxPoint x="730" y="520" />
            </Array>
          </mxGeometry>
        </mxCell>
        <mxCell id="7YN3MFbd8wUG7k_bTS1g-54" value="1" style="text;html=1;align=center;verticalAlign=middle;resizable=0;points=[];autosize=1;strokeColor=none;fillColor=none;" parent="1" vertex="1">
          <mxGeometry x="630" y="494" width="30" height="30" as="geometry" />
        </mxCell>
        <mxCell id="7YN3MFbd8wUG7k_bTS1g-55" value="" style="endArrow=none;html=1;rounded=0;" parent="1" source="1fNEbjh4FirybOxassPJ-20" target="1fNEbjh4FirybOxassPJ-24" edge="1">
          <mxGeometry width="50" height="50" relative="1" as="geometry">
            <mxPoint x="640" y="473" as="sourcePoint" />
            <mxPoint x="760" y="486.5" as="targetPoint" />
            <Array as="points">
              <mxPoint x="680" y="470" />
            </Array>
          </mxGeometry>
        </mxCell>
        <mxCell id="7YN3MFbd8wUG7k_bTS1g-58" value="*" style="text;html=1;align=center;verticalAlign=middle;resizable=0;points=[];autosize=1;strokeColor=none;fillColor=none;" parent="1" vertex="1">
          <mxGeometry x="200" y="568" width="30" height="30" as="geometry" />
        </mxCell>
        <mxCell id="1fNEbjh4FirybOxassPJ-1" value="User" style="swimlane;fontStyle=1;align=center;verticalAlign=top;childLayout=stackLayout;horizontal=1;startSize=26;horizontalStack=0;resizeParent=1;resizeParentMax=0;resizeLast=0;collapsible=1;marginBottom=0;whiteSpace=wrap;html=1;" vertex="1" parent="1">
          <mxGeometry x="200" y="480" width="160" height="34" as="geometry" />
        </mxCell>
        <mxCell id="1fNEbjh4FirybOxassPJ-3" value="" style="line;strokeWidth=1;fillColor=none;align=left;verticalAlign=middle;spacingTop=-1;spacingLeft=3;spacingRight=3;rotatable=0;labelPosition=right;points=[];portConstraint=eastwest;strokeColor=inherit;" vertex="1" parent="1fNEbjh4FirybOxassPJ-1">
          <mxGeometry y="26" width="160" height="8" as="geometry" />
        </mxCell>
        <mxCell id="1fNEbjh4FirybOxassPJ-7" value="Account" style="swimlane;fontStyle=1;align=center;verticalAlign=top;childLayout=stackLayout;horizontal=1;startSize=26;horizontalStack=0;resizeParent=1;resizeParentMax=0;resizeLast=0;collapsible=1;marginBottom=0;whiteSpace=wrap;html=1;" vertex="1" parent="1">
          <mxGeometry x="-40" y="448" width="160" height="98" as="geometry" />
        </mxCell>
        <mxCell id="1fNEbjh4FirybOxassPJ-8" value="+username&lt;br&gt;+email&lt;br&gt;+password&lt;br&gt;+hasPaid" style="text;strokeColor=none;fillColor=none;align=left;verticalAlign=top;spacingLeft=4;spacingRight=4;overflow=hidden;rotatable=0;points=[[0,0.5],[1,0.5]];portConstraint=eastwest;whiteSpace=wrap;html=1;" vertex="1" parent="1fNEbjh4FirybOxassPJ-7">
          <mxGeometry y="26" width="160" height="64" as="geometry" />
        </mxCell>
        <mxCell id="1fNEbjh4FirybOxassPJ-9" value="" style="line;strokeWidth=1;fillColor=none;align=left;verticalAlign=middle;spacingTop=-1;spacingLeft=3;spacingRight=3;rotatable=0;labelPosition=right;points=[];portConstraint=eastwest;strokeColor=inherit;" vertex="1" parent="1fNEbjh4FirybOxassPJ-7">
          <mxGeometry y="90" width="160" height="8" as="geometry" />
        </mxCell>
        <mxCell id="1fNEbjh4FirybOxassPJ-11" value="" style="endArrow=none;html=1;rounded=0;" edge="1" parent="1" source="1fNEbjh4FirybOxassPJ-7" target="1fNEbjh4FirybOxassPJ-1">
          <mxGeometry width="50" height="50" relative="1" as="geometry">
            <mxPoint x="70" y="800" as="sourcePoint" />
            <mxPoint x="120" y="750" as="targetPoint" />
          </mxGeometry>
        </mxCell>
        <mxCell id="1fNEbjh4FirybOxassPJ-12" value="0..1" style="text;html=1;strokeColor=none;fillColor=none;align=center;verticalAlign=middle;whiteSpace=wrap;rounded=0;" vertex="1" parent="1">
          <mxGeometry x="120" y="474" width="30" height="20" as="geometry" />
        </mxCell>
        <mxCell id="1fNEbjh4FirybOxassPJ-14" value="" style="endArrow=block;html=1;rounded=0;endFill=0;strokeWidth=1;jumpSize=6;" edge="1" parent="1" source="1fNEbjh4FirybOxassPJ-15" target="1fNEbjh4FirybOxassPJ-1">
          <mxGeometry width="50" height="50" relative="1" as="geometry">
            <mxPoint x="310" y="800" as="sourcePoint" />
            <mxPoint x="300" y="790" as="targetPoint" />
          </mxGeometry>
        </mxCell>
        <mxCell id="1fNEbjh4FirybOxassPJ-15" value="Admin" style="swimlane;fontStyle=1;align=center;verticalAlign=top;childLayout=stackLayout;horizontal=1;startSize=26;horizontalStack=0;resizeParent=1;resizeParentMax=0;resizeLast=0;collapsible=1;marginBottom=0;whiteSpace=wrap;html=1;" vertex="1" parent="1">
          <mxGeometry x="200" y="598" width="160" height="58" as="geometry" />
        </mxCell>
        <mxCell id="1fNEbjh4FirybOxassPJ-16" value="+ isAdmin" style="text;strokeColor=none;fillColor=none;align=left;verticalAlign=top;spacingLeft=4;spacingRight=4;overflow=hidden;rotatable=0;points=[[0,0.5],[1,0.5]];portConstraint=eastwest;whiteSpace=wrap;html=1;" vertex="1" parent="1fNEbjh4FirybOxassPJ-15">
          <mxGeometry y="26" width="160" height="24" as="geometry" />
        </mxCell>
        <mxCell id="1fNEbjh4FirybOxassPJ-17" value="" style="line;strokeWidth=1;fillColor=none;align=left;verticalAlign=middle;spacingTop=-1;spacingLeft=3;spacingRight=3;rotatable=0;labelPosition=right;points=[];portConstraint=eastwest;strokeColor=inherit;" vertex="1" parent="1fNEbjh4FirybOxassPJ-15">
          <mxGeometry y="50" width="160" height="8" as="geometry" />
        </mxCell>
        <mxCell id="1fNEbjh4FirybOxassPJ-20" value="Category" style="swimlane;fontStyle=1;align=center;verticalAlign=top;childLayout=stackLayout;horizontal=1;startSize=26;horizontalStack=0;resizeParent=1;resizeParentMax=0;resizeLast=0;collapsible=1;marginBottom=0;whiteSpace=wrap;html=1;" vertex="1" parent="1">
          <mxGeometry x="480" y="438" width="160" height="68" as="geometry" />
        </mxCell>
        <mxCell id="1fNEbjh4FirybOxassPJ-21" value="+type&lt;br&gt;+color" style="text;strokeColor=none;fillColor=none;align=left;verticalAlign=top;spacingLeft=4;spacingRight=4;overflow=hidden;rotatable=0;points=[[0,0.5],[1,0.5]];portConstraint=eastwest;whiteSpace=wrap;html=1;" vertex="1" parent="1fNEbjh4FirybOxassPJ-20">
          <mxGeometry y="26" width="160" height="34" as="geometry" />
        </mxCell>
        <mxCell id="1fNEbjh4FirybOxassPJ-22" value="" style="line;strokeWidth=1;fillColor=none;align=left;verticalAlign=middle;spacingTop=-1;spacingLeft=3;spacingRight=3;rotatable=0;labelPosition=right;points=[];portConstraint=eastwest;strokeColor=inherit;" vertex="1" parent="1fNEbjh4FirybOxassPJ-20">
          <mxGeometry y="60" width="160" height="8" as="geometry" />
        </mxCell>
        <mxCell id="1fNEbjh4FirybOxassPJ-24" value="Transaction" style="swimlane;fontStyle=1;align=center;verticalAlign=top;childLayout=stackLayout;horizontal=1;startSize=26;horizontalStack=0;resizeParent=1;resizeParentMax=0;resizeLast=0;collapsible=1;marginBottom=0;whiteSpace=wrap;html=1;" vertex="1" parent="1">
          <mxGeometry x="760" y="438" width="160" height="98" as="geometry" />
        </mxCell>
        <mxCell id="1fNEbjh4FirybOxassPJ-25" value="+ id&lt;br&gt;+amount&lt;br&gt;+type&lt;br&gt;+timestamp" style="text;strokeColor=none;fillColor=none;align=left;verticalAlign=top;spacingLeft=4;spacingRight=4;overflow=hidden;rotatable=0;points=[[0,0.5],[1,0.5]];portConstraint=eastwest;whiteSpace=wrap;html=1;" vertex="1" parent="1fNEbjh4FirybOxassPJ-24">
          <mxGeometry y="26" width="160" height="64" as="geometry" />
        </mxCell>
        <mxCell id="1fNEbjh4FirybOxassPJ-26" value="" style="line;strokeWidth=1;fillColor=none;align=left;verticalAlign=middle;spacingTop=-1;spacingLeft=3;spacingRight=3;rotatable=0;labelPosition=right;points=[];portConstraint=eastwest;strokeColor=inherit;" vertex="1" parent="1fNEbjh4FirybOxassPJ-24">
          <mxGeometry y="90" width="160" height="8" as="geometry" />
        </mxCell>
        <mxCell id="1fNEbjh4FirybOxassPJ-28" value="*" style="text;html=1;strokeColor=none;fillColor=none;align=center;verticalAlign=middle;whiteSpace=wrap;rounded=0;" vertex="1" parent="1">
          <mxGeometry x="740" y="466" width="10" height="8" as="geometry" />
        </mxCell>
        <mxCell id="1fNEbjh4FirybOxassPJ-29" value="*" style="text;html=1;strokeColor=none;fillColor=none;align=center;verticalAlign=middle;whiteSpace=wrap;rounded=0;" vertex="1" parent="1">
          <mxGeometry x="740" y="505" width="10" height="8" as="geometry" />
        </mxCell>
        <mxCell id="1fNEbjh4FirybOxassPJ-30" value="*" style="text;html=1;strokeColor=none;fillColor=none;align=center;verticalAlign=middle;whiteSpace=wrap;rounded=0;" vertex="1" parent="1">
          <mxGeometry x="740" y="536" width="10" height="8" as="geometry" />
        </mxCell>
        <mxCell id="1fNEbjh4FirybOxassPJ-31" value="*" style="text;html=1;strokeColor=none;fillColor=none;align=center;verticalAlign=middle;whiteSpace=wrap;rounded=0;" vertex="1" parent="1">
          <mxGeometry x="760" y="550" width="10" height="8" as="geometry" />
        </mxCell>
        <mxCell id="1fNEbjh4FirybOxassPJ-33" value="*" style="text;html=1;strokeColor=none;fillColor=none;align=center;verticalAlign=middle;whiteSpace=wrap;rounded=0;" vertex="1" parent="1">
          <mxGeometry x="470" y="470" width="10" height="10" as="geometry" />
        </mxCell>
      </root>
    </mxGraphModel>
  </diagram>
</mxfile>
